<?xml version="1.0" encoding="UTF-8"?>
<svg width="378px" height="378px" viewBox="0 0 378 378" version="1.1" xmlns="http://www.w3.org/2000/svg" xmlns:xlink="http://www.w3.org/1999/xlink">
    <!-- Generator: Sketch 46.2 (44496) - http://www.bohemiancoding.com/sketch -->
    <title>Customer_icon</title>
    <desc>Created with Sketch.</desc>
    <defs></defs>
    <g id="final" stroke="none" stroke-width="1" fill="none" fill-rule="evenodd">
        <g id="HCP_v1" transform="translate(-172.000000, -544.000000)">
            <g id="Customer_icon" transform="translate(192.000000, 564.000000)">
                <path d="M337.1662,168.5831 C337.1662,261.6891 261.6882,337.1661 168.5832,337.1661 C75.4772,337.1661 0.0002,261.6891 0.0002,168.5831 C0.0002,75.4771 75.4772,0.0001 168.5832,0.0001 C261.6882,0.0001 337.1662,75.4771 337.1662,168.5831 Z" id="Stroke-1" stroke="#E2E4E4" stroke-width="40"></path>
                <path d="M168.5832,0.0001 C261.6882,0.0001 337.1662,75.4771 337.1662,168.5831 C337.1662,214.9881 318.4162,257.0141 288.0792,287.4981" id="Stroke-3" stroke="#54C9ED" stroke-width="40"></path>
                <path d="M138.6886,153.6358 C138.6886,145.3808 131.9966,138.6888 123.7406,138.6888 L93.8456,138.6888 C85.5906,138.6888 78.8986,145.3808 78.8986,153.6358 L78.8986,181.9118 C78.8986,182.9478 79.3106,183.9428 80.0436,184.6758 L88.2426,192.8738 C89.2286,193.8608 89.8336,195.1638 89.9496,196.5538 L92.5746,228.0558 C93.2546,236.2258 99.7626,242.8838 107.9516,243.2988 C116.7696,243.7458 124.2566,237.1218 124.9816,228.4248 L127.6376,196.5538 C127.7536,195.1638 128.3586,193.8608 129.3446,192.8738 L137.5426,184.6758 C138.2766,183.9428 138.6886,182.9478 138.6886,181.9118 L138.6886,153.6358 Z" id="Fill-5" fill="#327216"></path>
                <path d="M108.7931,131.2145 C119.1121,131.2145 127.4781,122.8495 127.4781,112.5305 C127.4781,102.2115 119.1121,93.8465 108.7931,93.8465 C98.4751,93.8465 90.1091,102.2115 90.1091,112.5305 C90.1091,122.8495 98.4751,131.2145 108.7931,131.2145" id="Fill-7" fill="#327216"></path>
                <path d="M258.2668,153.6358 C258.2668,145.3808 251.5748,138.6888 243.3198,138.6888 L213.4248,138.6888 C205.1698,138.6888 198.4778,145.3808 198.4778,153.6358 L198.4778,181.9118 C198.4778,182.9478 198.8888,183.9428 199.6218,184.6758 L207.8218,192.8738 C208.8068,193.8608 209.4118,195.1638 209.5278,196.5538 L212.1528,228.0558 C212.8328,236.2258 219.3418,242.8838 227.5308,243.2988 C236.3488,243.7458 243.8358,237.1218 244.5608,228.4248 L247.2168,196.5538 C247.3318,195.1638 247.9378,193.8608 248.9228,192.8738 L257.1218,184.6758 C257.8548,183.9428 258.2668,182.9478 258.2668,181.9118 L258.2668,153.6358 Z" id="Fill-9" fill="#92C746"></path>
                <path d="M228.3722,131.2145 C238.6902,131.2145 247.0562,122.8495 247.0562,112.5305 C247.0562,102.2115 238.6902,93.8465 228.3722,93.8465 C218.0532,93.8465 209.6872,102.2115 209.6872,112.5305 C209.6872,122.8495 218.0532,131.2145 228.3722,131.2145" id="Fill-11" fill="#92C746"></path>
                <path d="M198.4777,153.6358 C198.4777,145.3808 191.7857,138.6888 183.5307,138.6888 L153.6357,138.6888 C145.3797,138.6888 138.6887,145.3808 138.6887,153.6358 L138.6887,181.9118 C138.6887,182.9478 139.0997,183.9428 139.8327,184.6758 L148.0317,192.8738 C149.0177,193.8608 149.6227,195.1638 149.7387,196.5538 L152.3637,228.0558 C153.0437,236.2258 159.5527,242.8838 167.7407,243.2988 C176.5597,243.7458 184.0467,237.1218 184.7717,228.4248 L187.4267,196.5538 C187.5427,195.1638 188.1477,193.8608 189.1337,192.8738 L197.3327,184.6758 C198.0657,183.9428 198.4777,182.9478 198.4777,181.9118 L198.4777,153.6358 Z" id="Fill-13" fill="#53C8ED"></path>
                <path d="M168.5832,131.2145 C178.9012,131.2145 187.2672,122.8495 187.2672,112.5305 C187.2672,102.2115 178.9012,93.8465 168.5832,93.8465 C158.2642,93.8465 149.8982,102.2115 149.8982,112.5305 C149.8982,122.8495 158.2642,131.2145 168.5832,131.2145" id="Fill-15" fill="#53C8ED"></path>
            </g>
        </g>
    </g>
</svg>